<?xml version="1.0" encoding="utf-8"?>
<!-- Generator: Adobe Illustrator 22.1.0, SVG Export Plug-In . SVG Version: 6.00 Build 0)  -->
<svg version="1.1" id="Layer_1" xmlns="http://www.w3.org/2000/svg" xmlns:xlink="http://www.w3.org/1999/xlink" x="0px" y="0px"
	 viewBox="0 0 239.5 205.2" style="enable-background:new 0 0 239.5 205.2;" xml:space="preserve">
<symbol  id="dot_pattern" viewBox="-101.2 -119.2 202.5 238.5">
	<circle cx="-99" cy="-117" r="2.2"/>
	<circle cx="-99" cy="-99" r="2.2"/>
	<circle cx="-99" cy="-81" r="2.2"/>
	<circle cx="-99" cy="-63" r="2.2"/>
	<circle cx="-99" cy="-45" r="2.2"/>
	<circle cx="-99" cy="-27" r="2.2"/>
	<circle cx="-99" cy="-9" r="2.2"/>
	<circle cx="-99" cy="9" r="2.2"/>
	<circle cx="-99" cy="27" r="2.2"/>
	<circle cx="-99" cy="45" r="2.2"/>
	<circle cx="-99" cy="63" r="2.2"/>
	<circle cx="-99" cy="81" r="2.2"/>
	<circle cx="-99" cy="99" r="2.2"/>
	<circle cx="-99" cy="117" r="2.2"/>
	<circle cx="-81" cy="-117" r="2.2"/>
	<circle cx="-81" cy="-99" r="2.2"/>
	<circle cx="-81" cy="-81" r="2.2"/>
	<circle cx="-81" cy="-63" r="2.2"/>
	<circle cx="-81" cy="-45" r="2.2"/>
	<circle cx="-81" cy="-27" r="2.2"/>
	<circle cx="-81" cy="-9" r="2.2"/>
	<circle cx="-81" cy="9" r="2.2"/>
	<circle cx="-81" cy="27" r="2.2"/>
	<circle cx="-81" cy="45" r="2.2"/>
	<circle cx="-81" cy="63" r="2.2"/>
	<circle cx="-81" cy="81" r="2.2"/>
	<circle cx="-81" cy="99" r="2.2"/>
	<circle cx="-81" cy="117" r="2.2"/>
	<circle cx="-63" cy="-117" r="2.2"/>
	<circle cx="-63" cy="-99" r="2.2"/>
	<circle cx="-63" cy="-81" r="2.2"/>
	<circle cx="-63" cy="-63" r="2.2"/>
	<circle cx="-63" cy="-45" r="2.2"/>
	<circle cx="-63" cy="-27" r="2.2"/>
	<circle cx="-63" cy="-9" r="2.2"/>
	<circle cx="-63" cy="9" r="2.2"/>
	<circle cx="-63" cy="27" r="2.2"/>
	<circle cx="-63" cy="45" r="2.2"/>
	<circle cx="-63" cy="63" r="2.2"/>
	<circle cx="-63" cy="81" r="2.2"/>
	<circle cx="-63" cy="99" r="2.2"/>
	<circle cx="-63" cy="117" r="2.2"/>
	<circle cx="-45" cy="-117" r="2.2"/>
	<circle cx="-45" cy="-99" r="2.2"/>
	<circle cx="-45" cy="-81" r="2.2"/>
	<circle cx="-45" cy="-63" r="2.2"/>
	<circle cx="-45" cy="-45" r="2.2"/>
	<circle cx="-45" cy="-27" r="2.2"/>
	<circle cx="-45" cy="-9" r="2.2"/>
	<circle cx="-45" cy="9" r="2.2"/>
	<circle cx="-45" cy="27" r="2.2"/>
	<circle cx="-45" cy="45" r="2.2"/>
	<circle cx="-45" cy="63" r="2.2"/>
	<circle cx="-45" cy="81" r="2.2"/>
	<circle cx="-45" cy="99" r="2.2"/>
	<circle cx="-45" cy="117" r="2.2"/>
	<circle cx="-27" cy="-117" r="2.2"/>
	<circle cx="-27" cy="-99" r="2.2"/>
	<circle cx="-27" cy="-81" r="2.2"/>
	<circle cx="-27" cy="-63" r="2.2"/>
	<circle cx="-27" cy="-45" r="2.2"/>
	<circle cx="-27" cy="-27" r="2.2"/>
	<circle cx="-27" cy="-9" r="2.2"/>
	<circle cx="-27" cy="9" r="2.2"/>
	<circle cx="-27" cy="27" r="2.2"/>
	<circle cx="-27" cy="45" r="2.2"/>
	<circle cx="-27" cy="63" r="2.2"/>
	<circle cx="-27" cy="81" r="2.2"/>
	<circle cx="-27" cy="99" r="2.2"/>
	<circle cx="-27" cy="117" r="2.2"/>
	<circle cx="-9" cy="-117" r="2.2"/>
	<circle cx="-9" cy="-99" r="2.2"/>
	<circle cx="-9" cy="-81" r="2.2"/>
	<circle cx="-9" cy="-63" r="2.2"/>
	<circle cx="-9" cy="-45" r="2.2"/>
	<circle cx="-9" cy="-27" r="2.2"/>
	<circle cx="-9" cy="-9" r="2.2"/>
	<circle cx="-9" cy="9" r="2.2"/>
	<circle cx="-9" cy="27" r="2.2"/>
	<circle cx="-9" cy="45" r="2.2"/>
	<circle cx="-9" cy="63" r="2.2"/>
	<circle cx="-9" cy="81" r="2.2"/>
	<circle cx="-9" cy="99" r="2.2"/>
	<circle cx="-9" cy="117" r="2.2"/>
	<circle cx="9" cy="-117" r="2.2"/>
	<circle cx="9" cy="-99" r="2.2"/>
	<circle cx="9" cy="-81" r="2.2"/>
	<circle cx="9" cy="-63" r="2.2"/>
	<circle cx="9" cy="-45" r="2.2"/>
	<circle cx="9" cy="-27" r="2.2"/>
	<circle cx="9" cy="-9" r="2.2"/>
	<circle cx="9" cy="9" r="2.2"/>
	<circle cx="9" cy="27" r="2.2"/>
	<circle cx="9" cy="45" r="2.2"/>
	<circle cx="9" cy="63" r="2.2"/>
	<circle cx="9" cy="81" r="2.2"/>
	<circle cx="9" cy="99" r="2.2"/>
	<circle cx="9" cy="117" r="2.2"/>
	<circle cx="27" cy="-117" r="2.2"/>
	<circle cx="27" cy="-99" r="2.2"/>
	<circle cx="27" cy="-81" r="2.2"/>
	<circle cx="27" cy="-63" r="2.2"/>
	<circle cx="27" cy="-45" r="2.2"/>
	<circle cx="27" cy="-27" r="2.2"/>
	<circle cx="27" cy="-9" r="2.2"/>
	<circle cx="27" cy="9" r="2.2"/>
	<circle cx="27" cy="27" r="2.2"/>
	<circle cx="27" cy="45" r="2.2"/>
	<circle cx="27" cy="63" r="2.2"/>
	<circle cx="27" cy="81" r="2.2"/>
	<circle cx="27" cy="99" r="2.2"/>
	<circle cx="27" cy="117" r="2.2"/>
	<circle cx="45" cy="-117" r="2.2"/>
	<circle cx="45" cy="-99" r="2.2"/>
	<circle cx="45" cy="-81" r="2.2"/>
	<circle cx="45" cy="-63" r="2.2"/>
	<circle cx="45" cy="-45" r="2.2"/>
	<circle cx="45" cy="-27" r="2.2"/>
	<circle cx="45" cy="-9" r="2.2"/>
	<circle cx="45" cy="9" r="2.2"/>
	<circle cx="45" cy="27" r="2.2"/>
	<circle cx="45" cy="45" r="2.2"/>
	<circle cx="45" cy="63" r="2.2"/>
	<circle cx="45" cy="81" r="2.2"/>
	<circle cx="45" cy="99" r="2.2"/>
	<circle cx="45" cy="117" r="2.2"/>
	<circle cx="63" cy="-117" r="2.2"/>
	<circle cx="63" cy="-99" r="2.2"/>
	<circle cx="63" cy="-81" r="2.2"/>
	<circle cx="63" cy="-63" r="2.2"/>
	<circle cx="63" cy="-45" r="2.2"/>
	<circle cx="63" cy="-27" r="2.2"/>
	<circle cx="63" cy="-9" r="2.2"/>
	<circle cx="63" cy="9" r="2.2"/>
	<circle cx="63" cy="27" r="2.2"/>
	<circle cx="63" cy="45" r="2.2"/>
	<circle cx="63" cy="63" r="2.2"/>
	<circle cx="63" cy="81" r="2.2"/>
	<circle cx="63" cy="99" r="2.2"/>
	<circle cx="63" cy="117" r="2.2"/>
	<circle cx="81" cy="-117" r="2.2"/>
	<circle cx="81" cy="-99" r="2.2"/>
	<circle cx="81" cy="-81" r="2.2"/>
	<circle cx="81" cy="-63" r="2.2"/>
	<circle cx="81" cy="-45" r="2.2"/>
	<circle cx="81" cy="-27" r="2.2"/>
	<circle cx="81" cy="-9" r="2.2"/>
	<circle cx="81" cy="9" r="2.2"/>
	<circle cx="81" cy="27" r="2.2"/>
	<circle cx="81" cy="45" r="2.2"/>
	<circle cx="81" cy="63" r="2.2"/>
	<circle cx="81" cy="81" r="2.2"/>
	<circle cx="81" cy="99" r="2.2"/>
	<circle cx="81" cy="117" r="2.2"/>
	<circle cx="99" cy="-117" r="2.2"/>
	<circle cx="99" cy="-99" r="2.2"/>
	<circle cx="99" cy="-81" r="2.2"/>
	<circle cx="99" cy="-63" r="2.2"/>
	<circle cx="99" cy="-45" r="2.2"/>
	<circle cx="99" cy="-27" r="2.2"/>
	<circle cx="99" cy="-9" r="2.2"/>
	<circle cx="99" cy="9" r="2.2"/>
	<circle cx="99" cy="27" r="2.2"/>
	<circle cx="99" cy="45" r="2.2"/>
	<circle cx="99" cy="63" r="2.2"/>
	<circle cx="99" cy="81" r="2.2"/>
	<circle cx="99" cy="99" r="2.2"/>
	<circle cx="99" cy="117" r="2.2"/>
</symbol>
<title>Artboard 1</title>
<use xlink:href="#dot_pattern"  width="202.5" height="238.5" x="-101.2" y="-119.2" transform="matrix(-2.027773e-07 1 -1 -2.582541e-07 120.0713 102.3034)" style="overflow:visible;"/>
</svg>
